Mei, a young girl whose memory holds a priceless numerical code, finds herself pursued by the Triads, the Russian mob, and corrupt NYC cops. Coming to her aid is an ex-cage fighter whose life was destroyed by the gangsters on Mei's trail.
 
iMDB:  http://www.imdb.com/title/tt1656190/

General
 Complete name : Safe 2012 BRRip x264 AAC-UNiQUE.mp4
 Format : MPEG-4
 Format profile : Base Media
 Codec ID : isom
 File size : 1.39 GiB
 Duration : 1h 34mn
 Overall bit rate mode : Variable
 Overall bit rate : 2 116 Kbps
 Encoded date : UTC 2012-08-23 15:40:21
 
Video
 ID : 1
 Format : AVC
 Format/Info : Advanced Video Codec
 Format profile : High@L4.1
 Format settings, CABAC : Yes
 Format settings, ReFrames : 3 frames
 Codec ID : avc1
 Codec ID/Info : Advanced Video Coding
 Duration : 1h 34mn
 Bit rate mode : Variable
 Bit rate : 1 782 Kbps
 Maximum bit rate : 40.0 Mbps
 Width : 720 pixels
 Height : 304 pixels
 Display aspect ratio : 2.35:1
 Frame rate mode : Constant
 Frame rate : 23.976 fps
 Color space : YUV
 Chroma subsampling : 4:2:0
 Bit depth : 8 bits
 Scan type : Progressive
 Bits/(Pixel*Frame) : 0.340
 Stream size : 1.17 GiB (84%)
 Writing library : x264 core 125 r2208 d9d2288
 
Audio
 ID : 2
 Format : AAC
 Format/Info : Advanced Audio Codec
 Format profile : LC
 Codec ID : 40
 Duration : 1h 34mn
 Bit rate mode : Variable
 Bit rate : 331 Kbps
 Maximum bit rate : 420 Kbps
 Channel(s) : 6 channels
 Channel positions : Front: L C R, Side: L R, LFE
 Sampling rate : 48.0 KHz
 Compression mode : Lossy
 Stream size : 223 MiB (16%)
 Language : English
 Encoded date : UTC 2012-08-23 15:40:44
 
Subtitles : Hardcoded for foreign parts and full english .srt included
 
Source : 720p.BluRay.x264-HAiDEAF - Thanks!
 
http://i.imgur.com/h4iWk.png 
http://i.imgur.com/GMdPb.png 
http://i.imgur.com/5awLy.png 
http://i.imgur.com/LafZ0.png